{"title":"Geordie Shore S11E07 1080P WEB-DL AAC2 0 H 264","uid":12884676,"size":1596406556,"categoryP":"video","categoryS":"hd___tv_shows","magnet":"?xt=urn:btih:1ebe7c88c53ea467e9be93ba0d8412cb32924646&amp;dn=Geordie+Shore+S11E07+1080P+WEB-DL+AAC2+0+H+264&amp;tr=udp%3A%2F%2Ftracker.leechers-paradise.org%3A6969&amp;tr=udp%3A%2F%2Fzer0day.ch%3A1337&amp;tr=udp%3A%2F%2Fopen.demonii.com%3A1337&amp;tr=udp%3A%2F%2Ftracker.coppersurfer.tk%3A6969&amp;tr=udp%3A%2F%2Fexodus.desync.com%3A6969","seeders":4,"leechers":1,"uploader":"jmanwf","files":1,"time":1449054388,"description":"Chloe's attempt to get Scott's attention goes badly while the Holly and Kyle situation comes to a head as the boys come to blows with huge consequences for Hyle.\r\n\r\n\r\n\r\nVideo\r\nID : 2\r\nFormat : AVC\r\nFormat/Info : Advanced Video Codec\r\nFormat profile :   \r\nFormat settings, CABAC : Yes\r\nFormat settings, ReFrames : 4 frames\r\nCodec ID : avc1\r\nCodec ID/Info : Advanced Video Coding\r\nDuration : 42mn 16s\r\nBit rate : 4 905 Kbps\r\nWidth : 1 920 pixels\r\nHeight : 1 080 pixels\r\nDisplay aspect ratio : 16:9\r\nFrame rate mode : Constant\r\nFrame rate : 25.000 fps\r\nColor space : YUV\r\nChroma subsampling : 4:2:0\r\nBit depth : 8 bits\r\nScan type : Progressive\r\nBits/(Pixel*Frame) : 0.095\r\nStream size : 1.45 GiB (97%)\r\nLanguage : English\r\nEncoded date : UTC 2015-12-02 04:30:32\r\nTagged date : UTC 2015-12-02 04:32:42\r\nColor range : Limited\r\nColor primaries : BT.709\r\nTransfer characteristics : BT.709\r\nMatrix coefficients : BT.709\r\n\r\nAudio\r\nID : 1\r\nFormat : AAC\r\nFormat/Info : Advanced Audio Codec\r\nFormat profile : LC\r\nCodec ID : 40\r\nDuration : 42mn 16s\r\nBit rate mode : Variable\r\nBit rate : 126 Kbps\r\nMaximum bit rate : 207 Kbps\r\nChannel(s) : 2 channels\r\nChannel positions : Front: L R\r\nSampling rate : 48.0 KHz\r\nCompression mode : Lossy\r\nStream size : 38.0 MiB (2%)\r\nLanguage : English\r\nEncoded date : UTC 2015-12-02 04:30:32\r\nTagged date : UTC 2015-12-02 04:32:42","torrent":{"xt":"urn:btih:1ebe7c88c53ea467e9be93ba0d8412cb32924646","amp;dn":"Geordie+Shore+S11E07+1080P+WEB-DL+AAC2+0+H+264","amp;tr":["udp%3A%2F%2Ftracker.leechers-paradise.org%3A6969","udp%3A%2F%2Fzer0day.ch%3A1337","udp%3A%2F%2Fopen.demonii.com%3A1337","udp%3A%2F%2Ftracker.coppersurfer.tk%3A6969","udp%3A%2F%2Fexodus.desync.com%3A6969"],"infoHash":"1ebe7c88c53ea467e9be93ba0d8412cb32924646","infoHashBuffer":{"type":"Buffer","data":[30,190,124,136,197,62,164,103,233,190,147,186,13,132,18,203,50,146,70,70]},"announce":[],"urlList":[]}}